<svg width="10" height="10" viewBox="0 0 10 10" fill="none" xmlns="http://www.w3.org/2000/svg">
<path d="M8.75 0.59375H1.25C0.887563 0.59375 0.59375 0.887563 0.59375 1.25C0.59375 1.61244 0.887563 1.90625 1.25 1.90625H7.16567L0.785961 8.28596C0.52968 8.54224 0.52968 8.95776 0.785961 9.21404C1.04224 9.47032 1.45776 9.47032 1.71404 9.21404L8.09375 2.83433V8.75C8.09375 9.11244 8.38756 9.40625 8.75 9.40625C9.11244 9.40625 9.40625 9.11244 9.40625 8.75V1.25C9.40625 1.06949 9.33337 0.906001 9.21543 0.787355L9.21264 0.784572C9.15005 0.722343 9.07803 0.675334 9.0012 0.643545C8.92383 0.611459 8.83898 0.59375 8.75 0.59375Z" fill="white"/>
</svg>
