<svg width="40" height="40" viewBox="0 0 40 40" fill="none" xmlns="http://www.w3.org/2000/svg">
<path fill-rule="evenodd" clip-rule="evenodd" d="M21.8907 13.6571C22.4064 13.4434 22.9593 13.3334 23.5175 13.3334C24.0758 13.3334 24.6286 13.4434 25.1444 13.6571C25.6602 13.8708 26.1288 14.184 26.5235 14.5789C26.9182 14.9735 27.2314 15.442 27.4451 15.9577C27.6588 16.4735 27.7688 17.0263 27.7688 17.5846C27.7688 18.1429 27.6588 18.6957 27.4451 19.2115C27.2314 19.7272 26.9182 20.1957 26.5234 20.5904C26.5233 20.5904 26.5234 20.5904 26.5234 20.5904L20.63 26.4837C20.4022 26.7115 20.0329 26.7115 19.8051 26.4837L13.9117 20.5904C13.1145 19.7932 12.6667 18.712 12.6667 17.5846C12.6667 16.4572 13.1145 15.376 13.9117 14.5788C14.7089 13.7816 15.7901 13.3337 16.9175 13.3337C18.0449 13.3337 19.1262 13.7816 19.9234 14.5788L20.2175 14.873L20.5116 14.5789C20.9063 14.184 21.3749 13.8708 21.8907 13.6571ZM25.6983 15.4036C25.412 15.1172 25.072 14.8899 24.6978 14.7349C24.3236 14.5798 23.9226 14.5 23.5175 14.5C23.1125 14.5 22.7115 14.5798 22.3373 14.7349C21.9631 14.8899 21.6231 15.1172 21.3368 15.4036L20.63 16.1104C20.4022 16.3382 20.0329 16.3382 19.8051 16.1104L19.0984 15.4037C18.52 14.8253 17.7355 14.5004 16.9175 14.5004C16.0996 14.5004 15.3151 14.8253 14.7367 15.4037C14.1583 15.9821 13.8334 16.7666 13.8334 17.5846C13.8334 18.4026 14.1583 19.187 14.7367 19.7654L20.2175 25.2463L25.6984 19.7654C25.9849 19.4791 26.2122 19.139 26.3673 18.7649C26.5223 18.3907 26.6021 17.9896 26.6021 17.5846C26.6021 17.1796 26.5223 16.7785 26.3673 16.4043C26.2122 16.0301 25.9848 15.69 25.6983 15.4036Z" fill="#333D4C"/>
</svg>
