<svg width="40" height="40" viewBox="0 0 40 40" fill="none" xmlns="http://www.w3.org/2000/svg">
<g clip-path="url(#clip0_1481_543)">
<path d="M20.0025 15.8921C17.7338 15.8921 15.8971 17.7308 15.8971 19.9974C15.8971 22.2661 17.7358 24.1028 20.0025 24.1028C22.2711 24.1028 24.1078 22.2641 24.1078 19.9974C24.1078 17.7288 22.2691 15.8921 20.0025 15.8921ZM20.0025 22.6621C18.5298 22.6621 17.3378 21.4694 17.3378 19.9974C17.3378 18.5254 18.5305 17.3328 20.0025 17.3328C21.4745 17.3328 22.6671 18.5254 22.6671 19.9974C22.6678 21.4694 21.4751 22.6621 20.0025 22.6621Z" fill="#333D4C"/>
<path d="M23.2986 12.0507C21.8266 11.9821 18.1806 11.9854 16.7073 12.0507C15.4126 12.1114 14.2706 12.4241 13.3499 13.3447C11.8113 14.8834 12.0079 16.9567 12.0079 19.9974C12.0079 23.1094 11.8346 25.1347 13.3499 26.6501C14.8946 28.1941 16.9979 27.9921 20.0026 27.9921C23.0853 27.9921 24.1493 27.9941 25.2393 27.5721C26.7213 26.9967 27.8399 25.6721 27.9493 23.2927C28.0186 21.8201 28.0146 18.1747 27.9493 16.7014C27.8173 13.8927 26.3099 12.1894 23.2986 12.0507ZM25.6286 25.6321C24.6199 26.6407 23.2206 26.5507 19.9833 26.5507C16.6499 26.5507 15.3133 26.6001 14.3379 25.6221C13.2146 24.5041 13.4179 22.7087 13.4179 19.9867C13.4179 16.3034 13.0399 13.6507 16.7366 13.4614C17.5859 13.4314 17.8359 13.4214 19.9739 13.4214L20.0039 13.4414C23.5566 13.4414 26.3439 13.0694 26.5113 16.7654C26.5493 17.6087 26.5579 17.8621 26.5579 19.9967C26.5573 23.2914 26.6199 24.6361 25.6286 25.6321Z" fill="#333D4C"/>
<path d="M24.2707 16.6892C24.8005 16.6892 25.23 16.2597 25.23 15.7298C25.23 15.2 24.8005 14.7705 24.2707 14.7705C23.7408 14.7705 23.3113 15.2 23.3113 15.7298C23.3113 16.2597 23.7408 16.6892 24.2707 16.6892Z" fill="#333D4C"/>
</g>
<defs>
<clipPath id="clip0_1481_543">
<rect width="16" height="16" fill="white" transform="translate(12 12)"/>
</clipPath>
</defs>
</svg>
