<svg width="48" height="48" viewBox="0 0 48 48" fill="none" xmlns="http://www.w3.org/2000/svg">
<g clip-path="url(#clip0_1473_2353)">
<path fill-rule="evenodd" clip-rule="evenodd" d="M18.975 16.1064C19.0989 15.9411 19.2934 15.8439 19.5 15.8439H28.5C28.7066 15.8439 28.9011 15.9411 29.025 16.1064L31.275 19.1064C31.3602 19.22 31.4062 19.3581 31.4062 19.5001V30.0001C31.4062 30.572 31.1791 31.1204 30.7747 31.5248C30.3703 31.9292 29.8219 32.1564 29.25 32.1564H18.75C18.1781 32.1564 17.6297 31.9292 17.2253 31.5248C16.8209 31.1204 16.5938 30.572 16.5938 30.0001V19.5001C16.5938 19.3581 16.6398 19.22 16.725 19.1064L18.975 16.1064ZM19.8281 17.1564L17.9062 19.7189V30.0001C17.9062 30.2239 17.9951 30.4385 18.1534 30.5967C18.3116 30.755 18.5262 30.8439 18.75 30.8439H29.25C29.4738 30.8439 29.6884 30.755 29.8466 30.5967C30.0049 30.4385 30.0938 30.2239 30.0938 30.0001V19.7189L28.1719 17.1564H19.8281Z" fill="#333D4C"/>
<path fill-rule="evenodd" clip-rule="evenodd" d="M16.5938 19.5001C16.5938 19.1377 16.8876 18.8439 17.25 18.8439H30.75C31.1124 18.8439 31.4062 19.1377 31.4062 19.5001C31.4062 19.8626 31.1124 20.1564 30.75 20.1564H17.25C16.8876 20.1564 16.5938 19.8626 16.5938 19.5001Z" fill="#333D4C"/>
<path fill-rule="evenodd" clip-rule="evenodd" d="M21 21.8439C21.3624 21.8439 21.6562 22.1377 21.6562 22.5001C21.6562 23.1217 21.9032 23.7179 22.3427 24.1574C22.7823 24.5969 23.3784 24.8439 24 24.8439C24.6216 24.8439 25.2177 24.5969 25.6573 24.1574C26.0968 23.7179 26.3438 23.1217 26.3438 22.5001C26.3438 22.1377 26.6376 21.8439 27 21.8439C27.3624 21.8439 27.6562 22.1377 27.6562 22.5001C27.6562 23.4698 27.271 24.3998 26.5854 25.0855C25.8997 25.7712 24.9697 26.1564 24 26.1564C23.0303 26.1564 22.1003 25.7712 21.4146 25.0855C20.729 24.3998 20.3438 23.4698 20.3438 22.5001C20.3438 22.1377 20.6376 21.8439 21 21.8439Z" fill="#333D4C"/>
</g>
<circle cx="34" cy="14.0001" r="10" fill="#F55266"/>
<path d="M33.8523 18.1194C33.2898 18.1194 32.7884 18.0228 32.348 17.8297C31.9105 17.6365 31.5625 17.368 31.304 17.0243C31.0483 16.6777 30.9091 16.2757 30.8864 15.8183H31.9602C31.983 16.0996 32.0795 16.3425 32.25 16.547C32.4205 16.7487 32.6435 16.905 32.919 17.0157C33.1946 17.1265 33.5 17.1819 33.8352 17.1819C34.2102 17.1819 34.5426 17.1166 34.8324 16.9859C35.1222 16.8552 35.3494 16.6734 35.5142 16.4405C35.679 16.2075 35.7614 15.9376 35.7614 15.6308C35.7614 15.3098 35.6818 15.0271 35.5227 14.7828C35.3636 14.5356 35.1307 14.3425 34.8239 14.2032C34.517 14.064 34.142 13.9944 33.6989 13.9944H33V13.0569H33.6989C34.0455 13.0569 34.3494 12.9944 34.6108 12.8694C34.875 12.7444 35.081 12.5683 35.2287 12.341C35.3793 12.1138 35.4545 11.8467 35.4545 11.5399C35.4545 11.2444 35.3892 10.9873 35.2585 10.7686C35.1278 10.5498 34.9432 10.3794 34.7045 10.2572C34.4688 10.1351 34.1903 10.074 33.8693 10.074C33.5682 10.074 33.2841 10.1294 33.017 10.2402C32.7528 10.3481 32.5369 10.5058 32.3693 10.7132C32.2017 10.9177 32.1108 11.1649 32.0966 11.4547H31.0739C31.0909 10.9973 31.2287 10.5967 31.4872 10.253C31.7457 9.90637 32.0838 9.63649 32.5014 9.4433C32.9219 9.25012 33.3835 9.15353 33.8864 9.15353C34.4261 9.15353 34.8892 9.26291 35.2756 9.48166C35.6619 9.69756 35.9588 9.98308 36.1662 10.3382C36.3736 10.6933 36.4773 11.0768 36.4773 11.4888C36.4773 11.9802 36.348 12.3993 36.0895 12.7459C35.8338 13.0925 35.4858 13.3325 35.0455 13.466V13.5342C35.5966 13.6251 36.027 13.8595 36.3366 14.2373C36.6463 14.6123 36.8011 15.0768 36.8011 15.6308C36.8011 16.1052 36.6719 16.5314 36.4134 16.9092C36.1577 17.2842 35.8082 17.5797 35.3651 17.7956C34.9219 18.0115 34.4176 18.1194 33.8523 18.1194Z" fill="white"/>
<defs>
<clipPath id="clip0_1473_2353">
<rect width="18" height="18" fill="white" transform="translate(15 15.0001)"/>
</clipPath>
</defs>
</svg>
