<svg width="24" height="24" viewBox="0 0 24 24" fill="none" xmlns="http://www.w3.org/2000/svg">
<path d="M5 5L18.5136 4.88936C19.8468 4.87845 20.5134 4.87299 20.9835 5.14281C21.3958 5.37949 21.7103 5.7553 21.8707 6.20287C22.0534 6.71311 21.9306 7.36834 21.685 8.67881L20.9894 12.3896C20.8153 13.3185 20.7282 13.783 20.4898 14.1308C20.2795 14.4375 19.9879 14.6796 19.6477 14.8297C19.2619 15 18.7893 15 17.8442 15H6.5M5 5L6.5 15M5 5L4.5 2H2M6.5 15L6.67123 16.0036C6.79228 16.7131 6.85281 17.0678 7.0308 17.3339C7.1877 17.5685 7.40759 17.754 7.66521 17.8693C7.95746 18 8.31732 18 9.03705 18H18.5001M16.5 21.5H16.51M8.5 21.5H8.51M17 21.5C17 21.7761 16.7761 22 16.5 22C16.2239 22 16 21.7761 16 21.5C16 21.2239 16.2239 21 16.5 21C16.7761 21 17 21.2239 17 21.5ZM9 21.5C9 21.7761 8.77614 22 8.5 22C8.22386 22 8 21.7761 8 21.5C8 21.2239 8.22386 21 8.5 21C8.77614 21 9 21.2239 9 21.5Z" stroke="black" stroke-width="2" stroke-linecap="round" stroke-linejoin="round"/>
</svg>
