<svg width="40" height="40" viewBox="0 0 40 40" fill="none" xmlns="http://www.w3.org/2000/svg">
<g clip-path="url(#clip0_1481_551)">
<path d="M27.6462 15.9528L27.6662 16.0835C27.4729 15.3975 26.9509 14.8682 26.2875 14.6755L26.2735 14.6722C25.0262 14.3335 20.0069 14.3335 20.0069 14.3335C20.0069 14.3335 15.0002 14.3268 13.7402 14.6722C13.0642 14.8682 12.5415 15.3975 12.3515 16.0695L12.3482 16.0835C11.8822 18.5175 11.8789 21.4422 12.3689 24.0482L12.3482 23.9162C12.5415 24.6022 13.0635 25.1315 13.7269 25.3242L13.7409 25.3275C14.9869 25.6668 20.0075 25.6668 20.0075 25.6668C20.0075 25.6668 25.0135 25.6668 26.2742 25.3275C26.9509 25.1315 27.4735 24.6022 27.6635 23.9302L27.6669 23.9162C27.8789 22.7842 28.0002 21.4815 28.0002 20.1508C28.0002 20.1022 28.0002 20.0528 27.9995 20.0035C28.0002 19.9582 28.0002 19.9042 28.0002 19.8502C28.0002 18.5188 27.8789 17.2162 27.6462 15.9528ZM18.4055 22.4342V17.5722L22.5829 20.0068L18.4055 22.4342Z" fill="#333D4C"/>
</g>
<defs>
<clipPath id="clip0_1481_551">
<rect width="16" height="16" fill="white" transform="translate(12 12)"/>
</clipPath>
</defs>
</svg>
